<svg width="1920" height="1080" viewBox="0 0 1920 1080" fill="none" xmlns="http://www.w3.org/2000/svg">
<mask id="mask0" mask-type="alpha" maskUnits="userSpaceOnUse" x="-491" y="-668" width="3284" height="3339">
<rect width="2398.73" height="2524.25" rx="24.2051" transform="matrix(-0.891006 0.453991 0.453991 0.891006 1646.91 -667.141)" fill="#151519"/>
</mask>
<g mask="url(#mask0)">
<path d="M-1500.31 3184.04C-1831.24 2808.72 -2066.98 2340.24 -2183.46 1828.99C-2296.81 1332.8 -2284.62 823.026 -2150.15 392.35C-2039.14 34.4219 -1831.05 -313.522 -1512.99 -670.55C-1229.62 -988.4 -888.373 -1284.32 -557.782 -1570.41C-489.622 -1629.69 -418.592 -1690.73 -349.909 -1751.39C-277.388 -1814.69 -204.345 -1879.37 -133.725 -1941.82C527.499 -2526.59 1151.98 -3079.27 1937.35 -3238.78C2371.43 -3327.12 2850.58 -3295.64 3285.5 -3150.74C3738.37 -2999.98 4094.82 -2736.98 4289.23 -2411.49C4424.23 -2185.42 4498.37 -1907.7 4523.11 -1538.69C4544.81 -1209.92 4524.62 -848.786 4503.09 -465.788C4486.09 -160.499 4468.2 155.481 4470.57 477.876C4472.76 769.947 4491.46 1069.21 4509.64 1358.2C4562.51 2197.1 4612.6 2989.25 4263.92 3526.95C4202.23 3622.4 4125.86 3711.67 4036.71 3793.89C3962.59 3862.26 3878.85 3926.04 3786.44 3985.28C3596.4 4105.87 3368.52 4204.88 3109.42 4279.77C2627.12 4418.87 2051.75 4471.65 1444.64 4432.67C855.186 4395.34 284.246 4269.19 -206.309 4069.81C-738.134 3852.89 -1173.85 3554.5 -1500.31 3184.04ZM-200.678 4057.44C288.499 4256.31 858.061 4381.93 1445.65 4419.19C2051.34 4458.58 2625.3 4406.2 3105.74 4267.02C3363.42 4192.54 3589.89 4093.95 3778.96 3974.25C3980.48 3846.66 4139.65 3693.57 4252.52 3520.42C4598.74 2985.89 4548.58 2195.61 4496.08 1359.05C4477.45 1069.58 4458.76 770.314 4457.05 477.796C4454.68 155.401 4472.57 -160.579 4489.6 -466.799C4511.1 -848.866 4531.73 -1209.51 4509.55 -1537.84C4485.18 -1904.5 4411.41 -2179.87 4277.76 -2404.49C4085.13 -2728.04 3730.91 -2988.62 3281.28 -3138.78C2848.67 -3283.13 2372.32 -3314.49 1940.1 -3226.07C1158.01 -3066.9 534.983 -2515.56 -124.788 -1932.13C-195.408 -1869.68 -268.451 -1805 -340.972 -1741.7C-410.101 -1681.52 -480.684 -1620.01 -548.845 -1560.72C-714.159 -1417.21 -882.343 -1271.95 -1044.64 -1122.25C-1205.97 -973.452 -1361.86 -820.698 -1503.08 -661.754C-1819.69 -306.067 -2027.26 40.4989 -2137.71 396.118C-2271.13 824.038 -2283.25 1331.95 -2170.72 1825.31C-2054.61 2334.21 -1819.72 2800.79 -1490.58 3174.17C-1165.05 3544.6 -731.125 3841.05 -200.678 4057.44Z" fill="#151519"/>
<path d="M-1973.09 1840.29C-2078.85 1375.65 -2067.98 898.473 -1941.64 495.92C-1838.09 161.012 -1642.57 -164.584 -1345 -499.119C-1079.71 -796.71 -760.225 -1073.46 -451.361 -1341.3C-387.56 -1396.56 -321.338 -1454.05 -256.569 -1510.21C-188.408 -1569.49 -120.657 -1630.19 -54.3966 -1688.61C564.269 -2235.93 1148.13 -2752.93 1883.65 -2902.33C2290.46 -2985.24 2737.98 -2955.97 3145.26 -2819.65C3569.11 -2677.99 3902.92 -2431.76 4084.64 -2126.84C4210.44 -1915.6 4280.19 -1656.25 4302.63 -1311.12C4322.85 -1003.4 4304.05 -665.065 4283.53 -307.213C4267.33 -21.4819 4250.71 274.493 4253.01 575.431C4255.03 848.837 4272.65 1128.47 4289.68 1399.69C4339.14 2184.35 4386.16 2925.53 4059.36 3429.59C4001.17 3519.13 3930.17 3602.55 3846.84 3679.41C3777.08 3743.76 3699.12 3803.11 3612.48 3857.91C3434.89 3970.61 3221.72 4063.21 2979.13 4133.64C2527.98 4263.74 1989.12 4313.34 1421.57 4276.42C869.816 4241.07 335.828 4123.88 -123.512 3936.95C-621.852 3733.98 -1029.45 3455.39 -1335.39 3108.14C-1643.49 2756.6 -1864.61 2318.56 -1973.09 1840.29ZM-117.435 3925.07C340.528 4111.48 873.137 4228.15 1423.03 4263.42C1989.64 4300.3 2526.64 4250.63 2976.38 4120.94C3217.55 4050.92 3429.75 3959.21 3606.41 3846.47C3795 3727.22 3943.52 3583.97 4049.42 3421.73C4373.28 2921.28 4326.62 2182.44 4277.09 1399.64C4260.06 1128.43 4242.43 848.795 4239.97 574.904C4237.7 273.035 4254.32 -22.9403 4270.53 -308.671C4290.56 -666.076 4309.81 -1003.92 4289.1 -1311.2C4267 -1653.05 4197.66 -1910.99 4072.75 -2121.26C3892.34 -2423.79 3561.7 -2667.56 3140.6 -2808.18C2736.07 -2943.45 2289.93 -2972.2 1885.96 -2890.11C1154.2 -2741.49 571.306 -2225.38 -45.9063 -1679.41C-112.167 -1620.98 -180.365 -1560.77 -248.078 -1501C-312.401 -1444.36 -379.07 -1387.36 -442.87 -1332.1C-597.526 -1198.42 -755.089 -1062.05 -906.73 -922.188C-1057.89 -782.769 -1203.6 -639.398 -1335.5 -491.739C-1632.06 -159.03 -1826.13 165.226 -1929.61 498.272C-2054.45 898.553 -2065.7 1373.39 -1960.31 1835.67C-1851.75 2312.08 -1631.49 2748.22 -1324.25 3097.86C-1020.17 3445.03 -613.912 3722.18 -117.435 3925.07Z" fill="#151519"/>
<path d="M-1763.17 1851.1C-1861.83 1418.47 -1851.34 973.922 -1734.51 598.971C-1518.91 -96.6227 -922.498 -612.652 -346.358 -1111.78C-286.918 -1163.01 -225.056 -1216.49 -165.094 -1269.1C-102.225 -1324.4 -38.3868 -1380.59 23.5132 -1434.99C599.62 -1944.85 1143.79 -2426.14 1828.53 -2565.46C2207.58 -2642.5 2624.41 -2615.4 3003.64 -2489.08C3398.51 -2357.45 3709.68 -2128 3878.7 -1843.65C3996.2 -1646.27 4061.07 -1404.84 4082.59 -1083.07C4101.33 -796.391 4083.96 -481.789 4065.35 -148.114C4050.38 118.544 4035.07 393.582 4037.27 673.993C4039.11 928.735 4055.62 1189.67 4071.58 1441.25C4118.08 2172.15 4161.1 2862.33 3857.15 3331.87C3802.95 3415.04 3736.83 3493.06 3659.31 3564.56C3594.39 3624.43 3521.73 3679.8 3440.83 3731.11C3275.19 3836.36 3076.75 3922.56 2850.7 3987.59C2430.21 4109.13 1928.83 4154.65 1399.87 4120.69C886.268 4087.81 388.338 3978.62 -38.8575 3804.17C-502.78 3615.19 -882.704 3355.9 -1167.2 3031.91C-1455.79 2705.41 -1661.3 2296.92 -1763.17 1851.1ZM-34.6427 3792.22C391.659 3965.69 887.725 4074.81 1399.95 4107.16C1927.49 4141.53 2427.49 4095.5 2846.57 3974.36C3071.2 3909.74 3268.72 3823.5 3433.38 3719.14C3608.59 3607.75 3747.83 3474.85 3845.34 3323.93C4146.8 2858.49 4103.26 2169.69 4057.12 1441.13C4041.2 1188.62 4025.14 928.171 4022.85 672.944C4021.14 392.087 4036 116.563 4050.97 -150.094C4089.9 -825.304 4122.8 -1408.87 3867.26 -1837.58C3699.54 -2119.54 3391.06 -2346.09 2999.42 -2477.12C2622.5 -2602.89 2207.54 -2629.91 1830.84 -2553.24C1149.86 -2414.7 607.104 -1933.82 32.4503 -1425.3C-29.4497 -1370.9 -92.8407 -1314.23 -156.156 -1259.41C-216.118 -1206.8 -277.981 -1153.32 -337.421 -1102.09C-481.456 -977.306 -627.913 -850.29 -769.38 -719.809C-910.362 -589.774 -1045.87 -456.719 -1168.53 -318.481C-1444.59 -8.26452 -1625.13 292.75 -1721.62 603.223C-1837.89 975.865 -1848.31 1418.55 -1750.46 1848.35C-1649.42 2291.33 -1444.76 2697.93 -1157.99 3023.42C-874.355 3345.51 -496.256 3603.79 -34.6427 3792.22Z" fill="#151519"/>
<path d="M-1552.8 1862.4C-1644.36 1461.77 -1634.25 1049.86 -1526.01 702.547C-1326.48 58.5434 -774.491 -420.101 -239.94 -882.658C-184.823 -930.806 -127.805 -979.809 -72.2035 -1028.4C-13.6948 -1079.68 45.2983 -1131.4 102.391 -1182.27C635.94 -1654.66 1139.97 -2100.73 1774.38 -2229.49C2125.23 -2301.14 2511.8 -2275.73 2862.95 -2158.46C3228.81 -2035.94 3516.88 -1823.74 3673.69 -1560.41C3912.22 -1160.84 3881.42 -617.768 3846.72 10.5048C3833.02 257.157 3818.54 511.707 3820.64 771.59C3822.3 1007.67 3837.74 1248.97 3852.1 1482.29C3894.71 2159.4 3935.1 2799.1 3653.56 3233.63C3603.83 3309.98 3543.11 3381.22 3471.41 3447.36C3287.31 3617.16 3032.82 3751.48 2721.34 3841.51C2331.99 3954.05 1867.12 3996.37 1377.25 3964.92C901.303 3934.97 440.401 3832.86 44.3815 3671.81C-385.57 3496.32 -737.339 3255.9 -1000.9 2956.53C-1268.53 2653.74 -1458.93 2275.24 -1552.8 1862.4ZM49.0808 3659.4C443.722 3819.94 902.798 3921.04 1377.81 3950.95C1866.27 3982.81 2329.28 3940.41 2717.21 3828.28C3147.13 3704.32 3466.66 3495.68 3642.2 3226.18C3921.29 2794.81 3881.26 2157.46 3839.02 1482.7C3824.21 1248.89 3808.77 1007.59 3807.11 771.511C3805.5 511.18 3819.54 256.146 3833.23 9.49378C3868.31 -616.432 3899.03 -1157.64 3662.25 -1554.34C3506.75 -1815.29 3221.39 -2025.51 2858.73 -2146.51C2509.9 -2263.21 2125.63 -2288.06 1776.69 -2217.27C1145.56 -2088.84 642.976 -1644.12 110.881 -1173.06C53.7885 -1122.2 -5.20454 -1070.47 -63.7133 -1019.2C-119.315 -970.604 -176.817 -921.154 -231.45 -873.453C-364.38 -758.018 -498.725 -642.174 -628.08 -522.864C-1017.11 -164.039 -1364.43 224.457 -1513.53 705.382C-1621.21 1050.39 -1630.76 1459.99 -1540.06 1858.71C-1446.56 2269.21 -1256.53 2645.37 -991.661 2947.11C-729.474 3245.95 -379.046 3484.93 49.0808 3659.4Z" fill="#151519"/>
<path d="M-1342.92 1874.14C-1426.89 1505.07 -1418.1 1125.75 -1317.98 806.566C-1134.5 213.222 -626.035 -227.069 -134.49 -652.65C-83.733 -696.776 -31.5226 -742.242 19.7189 -786.815C73.8673 -834.069 128.053 -882.254 180.302 -928.652C671.292 -1363.58 1135.15 -1773.49 1719.26 -1892.62C2042.35 -1958.4 2398.23 -1935.16 2721.29 -1826.96C3058.17 -1714.47 3323.6 -1519.05 3467.72 -1276.28C3687.44 -907.791 3659.34 -408.452 3626.67 169.528C3613.76 396.623 3600.56 631.168 3602.55 870.524C3604.52 1087.49 3618.4 1309.6 3631.65 1524.23C3671.31 2147.58 3708.18 2735.83 3449 3136.28C3403.26 3206.26 3347.43 3272.1 3281.54 3332.88C3111.97 3489.28 2877.97 3612.76 2590.56 3695.83C2232.36 3799.37 1804 3838.5 1353.69 3809.12C915.445 3781.16 491.496 3688 126.69 3539.4C-269.33 3378.35 -592.941 3156.79 -835.542 2881.12C-1080.79 2601.62 -1256.56 2253.57 -1342.92 1874.14ZM132.319 3527.04C495.747 3675.11 918.319 3767.74 1354.7 3795.63C1804.08 3824.98 2230.58 3785.77 2587.36 3682.64C2982.86 3568.02 3276.98 3376.54 3438.12 3128.38C3695.29 2731.58 3658.34 2145.19 3619.06 1524.19C3605.36 1309.08 3591.48 1086.97 3590 869.551C3588.01 630.194 3601.7 395.202 3614.6 168.108C3647.2 -408.01 3674.78 -905.971 3457.21 -1270.18C3314.36 -1509.62 3051.65 -1703.07 2718.01 -1814.97C2396.77 -1922.16 2043.69 -1945.29 1722.95 -1879.88C1142.6 -1761.53 679.706 -1352.52 190.17 -918.924C137.922 -872.527 83.7357 -824.341 29.5873 -777.087C-21.6542 -732.515 -74.349 -686.602 -125.106 -642.476C-247.862 -536.425 -370.655 -429.443 -489.836 -319.516C-847.863 10.7103 -1167.34 368.147 -1304.16 810.855C-1403.27 1128.22 -1412.44 1505.19 -1328.83 1871.91C-1242.89 2249.92 -1067.97 2596.08 -824.027 2873.19C-583.661 3146.43 -261.39 3366.54 132.319 3527.04Z" fill="#151519"/>
<path d="M-1132.99 1884.95C-1209.87 1547.88 -1201.94 1201.65 -1110.37 909.168C-942.478 366.967 -478.473 -35.0054 -29.0019 -423.573C17.3947 -463.677 65.2451 -505.122 112.164 -546.604C161.468 -589.389 211.293 -633.553 259.181 -675.929C708.059 -1072.92 1131.34 -1448.08 1665.11 -1556.65C1960.45 -1616.55 2285.63 -1595.49 2581.09 -1496.8C2888.99 -1394.34 3131.29 -1215.24 3263.19 -993.493C3464.16 -657.012 3438.27 -200.962 3408.52 327.696C3396.89 534.786 3384.96 749.326 3386.41 967.671C3388.19 1165.97 3400.52 1368.9 3413.1 1565.31C3448.87 2134.86 3483.12 2672.63 3245.85 3038.52C3204.07 3103.06 3152.67 3163.02 3092.59 3218.43C2937.56 3361.43 2723.57 3474.52 2461.2 3549.74C2134.15 3644.28 1743.23 3680.26 1331.06 3653.35C930.966 3627.86 543.076 3542.69 209.931 3407.03C-151.672 3259.96 -447.611 3057.71 -669.247 2805.75C-893.079 2550.43 -1053.74 2232.37 -1132.99 1884.95ZM215.561 3394.67C547.328 3529.81 933.356 3614.9 1332.07 3639.86C1742.38 3666.7 2131.88 3631.13 2458 3536.55C2819.03 3432.2 3087.77 3256.95 3234.98 3030.62C3469.74 2668.83 3435.42 2132.92 3400.03 1565.71C3387.44 1369.3 3375.11 1166.38 3372.88 967.591C3370.99 748.762 3382.92 534.221 3395.04 326.685C3424.23 -199.663 3450.04 -653.851 3251.27 -986.979C3121.12 -1205.86 2881.05 -1382.54 2576.39 -1484.4C2283.24 -1582.53 1960.37 -1603.03 1667.38 -1543.5C1137.37 -1435.71 714.612 -1061.92 267.634 -665.793C219.746 -623.416 169.92 -579.253 120.617 -536.468C74.1824 -495.432 25.8475 -453.541 -20.5491 -413.437C-132.2 -316.732 -245.303 -218.687 -353.826 -118.591C-680.847 183.036 -972.486 509.414 -1097.48 913.42C-1188.01 1203.14 -1195.86 1547.52 -1119.84 1882.68C-1040.96 2227.76 -882.087 2543.88 -658.626 2796.85C-438.331 3047.36 -143.732 3248.16 215.561 3394.67Z" fill="#151519"/>
<path d="M-922.625 1896.25C-992.393 1591.18 -984.857 1277.58 -901.863 1012.74C-750.048 522.132 -329.532 157.582 77.4176 -194.456C119.454 -230.539 162.497 -268.446 205.502 -305.422C249.999 -344.67 294.98 -384.365 338.508 -422.72C744.827 -782.246 1128.41 -1121.7 1611.41 -1220.2C1878.54 -1274.71 2173.47 -1255.33 2440.4 -1166.19C2719.28 -1072.83 2938.98 -911.438 3058.19 -710.258C3239.9 -405.338 3216.68 7.90925 3189.89 486.312C3179.05 673.844 3168.88 867.932 3170.22 1065.75C3171.38 1244.9 3183.08 1428.68 3194.56 1606.39C3226.92 2121.7 3257.61 2608.95 3043.19 2940.31C3005.4 2998.49 2958.88 3053.05 2904.62 3103.1C2764.12 3232.68 2570.62 3334.94 2333.25 3403.25C2036.86 3489.23 1682.94 3521.57 1309.85 3497.17C947.457 3473.67 596.556 3396.53 295.072 3273.81C-32.1138 3140.72 -299.897 2957.33 -501.053 2729.52C-705.821 2498.76 -850.886 2210.25 -922.625 1896.25ZM298.802 3262.3C598.908 3384.5 948.431 3461.12 1309.45 3484.1C1681.16 3507.97 2033.67 3476.04 2328.15 3390.92C2654.72 3296.83 2897.6 3138.26 3031.35 2933.31C3243.75 2605.59 3212.95 2121.13 3180.51 1607.69C3169.03 1429.98 3157.82 1245.76 3156.21 1066.12C3154.88 868.3 3165.53 673.764 3176.37 486.233C3203.08 9.69201 3226.23 -401.693 3046.23 -702.812C2928.28 -900.676 2711.34 -1061.03 2435.66 -1152.85C2170.12 -1241.47 1878.43 -1260.25 1613.19 -1206.6C1133.51 -1109.37 750.895 -770.807 346.476 -412.137C302.948 -373.782 257.967 -334.087 213.471 -294.839C171.397 -257.826 127.422 -219.956 85.3858 -183.873C-15.6439 -96.0682 -118.089 -7.854 -216.438 82.8578C-512.452 355.887 -776.25 651.206 -889.906 1016.96C-971.856 1279.04 -979.317 1590.78 -909.921 1893.49C-839.037 2205.6 -694.344 2491.76 -492.779 2720.99C-292.964 2947.35 -26.5212 3129.29 298.802 3262.3Z" fill="#151519"/>
<path d="M-712.257 1907.54C-774.438 1634.04 -768.218 1353.03 -693.804 1115.83C-557.58 676.362 -181.524 350.129 182.905 34.6204C221.103 1.18144 259.264 -31.3261 297.462 -64.765C337.114 -99.5446 377.25 -134.771 415.971 -169.588C779.732 -491.654 1123.63 -795.398 1555.85 -883.818C1795.22 -932.452 2059.46 -915.249 2298.78 -835.618C2548.68 -752.295 2745.25 -607.226 2852.25 -427.062C3015.2 -154.151 2994.19 215.809 2969.89 644.405C2960.77 812.416 2950.49 985.978 2952.21 1162.82C2953.19 1323.31 2963.82 1487.46 2973.7 1646.91C3003.1 2108.46 3030.72 2544.75 2838.23 2841.55C2804.42 2893.35 2762.78 2942.51 2713.85 2987.65C2588.37 3103.38 2414.88 3195.26 2201.58 3256.6C1935.89 3333.09 1619.41 3362.29 1284.92 3340.85C960.184 3320.27 646.272 3251.15 376.002 3140.88C82.7865 3021.3 -157.324 2857.21 -337.031 2652.65C-517.631 2447.13 -648.068 2189.06 -712.257 1907.54ZM382.526 3129.49C650.971 3238.75 963.951 3307.83 1287.31 3327.88C1619.94 3349.25 1935 3320.46 2199.28 3244.38C2491.86 3160.12 2708.89 3018.23 2828.24 2834.61C3017.79 2541.43 2990.55 2107.48 2962 1647.83C2952.12 1488.38 2941.49 1324.24 2940.55 1162.82C2939.32 985.526 2949.14 811.48 2958.26 643.469C2982.01 217.183 3002.94 -150.914 2842.19 -420.472C2736.94 -597.767 2542.61 -740.413 2295.94 -823.139C2058.48 -902.695 1797.04 -919.785 1560.01 -871.523C1130.63 -783.921 788.631 -481.033 425.877 -160.792C386.225 -126.013 347.02 -90.7489 306.884 -55.5226C268.686 -22.0836 230.972 10.9083 192.327 43.8628C101.471 122.284 10.5778 201.636 -77.5966 282.964C-342.605 527.394 -579.047 792.101 -680.394 1118.7C-753.764 1353.15 -759.909 1632.29 -698.546 1902.96C-634.728 2182.13 -506.079 2438.27 -324.994 2643.34C-147.151 2847.83 91.1357 3010.9 382.526 3129.49Z" fill="#151519"/>
<path d="M-501.891 1918.84C-556.969 1677.34 -551.135 1428.97 -485.784 1219.85C-365.6 831.043 -33.0705 543.163 288.8 265.115C322.638 235.698 355.992 206.728 389.83 177.311C425.121 146.553 459.966 115.31 494.773 84.9995C815.975 -199.606 1119.74 -468.124 1502.07 -545.499C1713.68 -588.258 1946.78 -573.712 2158.46 -502.66C2378.9 -428.923 2552.83 -300.627 2648.1 -141.925C2791.8 99.4243 2773.94 426.133 2752.11 804.922C2743.78 953.375 2735.26 1106.49 2735.95 1262.77C2736.75 1404.59 2746.27 1550.03 2755.08 1689.85C2780.59 2097.6 2805.13 2482.93 2635.49 2745.2C2605.63 2791.57 2568.92 2834.4 2525.8 2874.17C2414.86 2976.5 2260.93 3057.51 2073.56 3111.97C1839.02 3179.46 1559.04 3205.46 1264.11 3186.09C977.527 3167.98 699.674 3106.85 461.065 3009.52C202.266 2903.92 -10.1725 2759.14 -168.915 2578.29C-330.375 2395.46 -445.698 2167.38 -501.891 1918.84ZM465.317 2996.64C702.549 3093.44 978.576 3153.56 1263.75 3172.08C1557.3 3190.93 1835.86 3165.34 2068.98 3098.26C2326.66 3023.78 2518.75 2898.61 2624.17 2736.82C2791.8 2478.19 2767.62 2095.21 2742.04 1689.32C2733.27 1548.58 2723.75 1403.13 2722.95 1261.31C2721.82 1104.54 2730.33 951.433 2739.15 802.533C2760.42 426.054 2778.2 101.207 2636.69 -136.789C2543.66 -293.068 2372.45 -419.388 2154.77 -492.081C1944.91 -562.127 1714.16 -577.044 1504.89 -534.657C1125.84 -457.616 823.981 -189.954 503.785 92.8262C468.94 124.068 434.133 154.38 398.842 185.137C365.004 214.555 331.651 243.525 297.813 272.942C217.578 342.464 137.343 411.985 59.3421 483.929C-174.659 699.761 -383.261 933.409 -472.336 1221.79C-536.68 1429.09 -542.886 1675.11 -488.18 1914.26C-431.912 2160.94 -317.892 2386.63 -158.703 2567.97C-2.27024 2748.27 208.344 2892.04 465.317 2996.64Z" fill="#151519"/>
<path d="M-291.97 1929.65C-339.945 1720.15 -334.496 1504.42 -278.171 1322.45C-174.063 985.237 114.491 735.228 393.841 493.709C423.319 468.314 452.312 443.365 481.343 417.485C512.274 390.749 542.274 363.975 572.274 337.201C851.364 90.5415 1114.51 -142.303 1446.54 -210.05C1629.95 -247.418 1832.31 -234.113 2016.39 -172.572C2208.3 -108.383 2359.14 2.65542 2441.71 140.788C2566.65 350.129 2550.52 633.997 2532.59 962.569C2525.53 1091.02 2517.8 1224.57 2518.87 1359.88C2519.49 1483.04 2527.94 1608.85 2535.6 1730.89C2558.15 2084.89 2578.69 2419.21 2431.41 2647.41C2405.54 2687.41 2373.71 2724.84 2335.92 2759.69C2239.51 2848.62 2106.08 2918.79 1942.78 2966.3C1738.9 3025.23 1496.41 3047.15 1240.07 3030.73C991.185 3014.61 750.323 2961.51 542.889 2877.57C318.023 2786.39 134.225 2660.03 -4.03705 2503.32C-143.117 2343.78 -242.88 2146.19 -291.97 1929.65ZM548.557 2864.27C754.128 2948.13 993.612 3000.72 1241.12 3016.31C1619.8 3040.94 2077.04 2979.65 2326.06 2749.96C2362.39 2716.45 2393.74 2679.47 2420.09 2639.02C2565.36 2414.48 2544.25 2082.46 2522.08 1730.81C2514.41 1608.77 2506.45 1482.51 2505.83 1359.35C2504.8 1223.11 2512.05 1090.01 2519.58 961.11C2537.89 634.886 2553.95 352.881 2430.76 146.409C2349.93 11.1458 2201.37 -98.4015 2013.15 -161.509C1831.37 -222.49 1631.33 -235.235 1450.26 -198.239C1121.99 -131.273 859.817 100.678 582.18 345.997C552.18 372.771 521.249 399.507 491.249 426.281C461.771 451.676 433.225 477.11 403.747 502.505C334.617 562.68 264.072 623.264 196.73 685.377C-6.26513 872.61 -187.026 1075.2 -264.761 1325.33C-320.526 1504.98 -325.862 1717.92 -278.743 1925.52C-230.025 2139.71 -131.118 2335.41 7.14355 2492.11C143.543 2648.75 326 2773.65 548.557 2864.27Z" fill="#151519"/>
<path d="M-81.6023 1940.95C-121.99 1763.01 -117.858 1579.87 -69.6655 1426.03C18.8502 1139.95 263.877 928.298 500.259 722.825C525.376 701.451 550.047 679.593 574.233 658.181C599.873 635.429 625.512 612.677 651.599 590.409C888.131 381.21 1111.14 183.592 1392.83 126.406C1548.49 94.9131 1720.15 106.045 1876.64 158.075C2039.56 212.232 2167.27 306.944 2237.63 424.06C2343.77 602.324 2330.34 842.457 2314.89 1121.22C2308.62 1230.11 2302.65 1343.21 2303.17 1457.51C2304.1 1561.56 2310.5 1668.63 2317.05 1771.97C2335.71 2072.17 2354.11 2355.57 2228.75 2549.2C2205.87 2584.66 2178.47 2616.2 2146.98 2645.25C1933.33 2842.31 1541.73 2895.06 1218.41 2874.07C773.651 2845.84 388.92 2682.44 163.71 2426.61C44.5873 2292.6 -40.0245 2124.06 -81.6023 1940.95ZM1218.49 2860.55C1539.02 2881.42 1926.37 2829.9 2137.11 2635.52C2167.63 2607.37 2194.54 2576.27 2216.95 2541.26C2339.81 2351.73 2322.26 2070.23 2303.04 1772.34C2296.49 1668.99 2290.09 1561.92 2288.71 1457.39C2288.24 1342.16 2294.2 1229.06 2300.47 1120.17C2316.3 843.756 2329.21 605.001 2225.71 430.575C2088.56 200.218 1723.86 72.1454 1395.59 139.111C1117.65 195.516 895.615 392.24 660.536 600.099C634.896 622.851 609.257 645.603 583.17 667.871C558.499 689.729 533.867 710.656 509.196 732.514C450.241 783.305 391.247 835.028 334.079 887.757C162.091 1046.39 9.17099 1217.92 -56.7395 1429.35C-103.925 1581.36 -108.43 1762.15 -68.4135 1937.75C-27.2071 2118.52 56.1019 2284.67 173.399 2417.67C395.891 2671.53 776.972 2832.92 1218.49 2860.55Z" fill="#151519"/>
<path d="M128.284 1952.69C94.9988 1806.75 98.7458 1656.25 137.912 1529.56C210.836 1294.63 410.957 1120.81 605.711 952.832C626.022 934.995 646.779 917.643 666.605 900.253C687.884 881.523 708.679 863.239 729.958 844.509C923.932 672.77 1107.25 510.863 1338.16 463.753C1612.34 408.128 1916.77 515.576 2031.66 708.186C2119.04 854.442 2107.34 1051.73 2094.84 1280.24C2089.82 1370.06 2084.71 1461.74 2085.57 1555.99C2086.32 1641.38 2091.65 1728.82 2097.09 1813.46C2112.79 2059.9 2127.19 2292.29 2024.68 2451.4C2005.78 2480.49 1983.27 2506.63 1957.59 2530.32C1781.73 2692.53 1460.96 2735.54 1195.31 2718.75C830.115 2695.13 515.075 2561.6 329.521 2351.68C232.332 2240.48 162.796 2102.87 128.284 1952.69ZM1195.87 2704.78C1458.24 2721.9 1775.74 2679.22 1948.21 2520.14C1973.4 2496.91 1994.94 2471.66 2013.81 2443.5C2114.3 2288.04 2099.83 2057.51 2084.5 1813.42C2079.06 1728.77 2073.28 1640.85 2073.02 1555.02C2072.16 1460.77 2077.78 1367.71 2082.33 1278.34C2095.19 1052.18 2106.37 856.262 2020.71 713.807C1908.46 525.035 1609.95 421.092 1340.95 475.526C1112.87 521.817 931.453 682.869 738.933 853.267C717.654 871.997 696.859 890.281 675.58 909.011C655.269 926.848 634.959 944.684 614.686 961.59C566.352 1003.48 518.017 1045.37 471.023 1088.72C330.525 1218.31 204.961 1359.23 151.322 1532.43C112.716 1656.81 109.081 1804.52 141.51 1948.56C175.167 2096.84 243.847 2232.54 339.733 2341.36C522.083 2549.76 833.921 2681.76 1195.87 2704.78Z" fill="#151519"/>
<path d="M345.971 1632.65C402.818 1449.31 559.896 1313.4 711.198 1181.91C727.149 1168.1 743.099 1154.28 758.564 1140.91C774.999 1126.65 791.918 1111.94 807.905 1097.2C959.32 962.919 1102.5 836.238 1283.08 799.688C1471.19 761.577 1725.28 822.214 1825.72 991.386C1893.85 1106.08 1885.3 1260.12 1875.28 1438.82C1871.53 1508.64 1867.21 1580.76 1867.52 1654C1868.09 1720.72 1872.35 1788.52 1876.2 1854.91C1888.49 2047.11 1899.78 2229.47 1819.67 2353.57C1804.76 2376.29 1787.13 2397.03 1767.27 2415.35C1629.68 2542.26 1378.31 2575.95 1171.3 2562.46C886.13 2543.94 639.401 2439.76 494.921 2275.34C341.094 2099.81 281.105 1841.32 345.971 1632.65ZM1173.24 2549.01C1377.46 2562.39 1625.07 2529.48 1759.26 2405.7C1778.64 2387.83 1795.79 2367.53 1810.18 2346.19C1888.27 2225.74 1877.35 2045.73 1864.98 1855.39C1860.65 1789.45 1856.43 1720.72 1855.86 1653.99C1855.11 1580.27 1859.42 1508.15 1863.66 1437.89C1873.6 1261.05 1882.08 1108.87 1815.66 997.976C1728.28 851.72 1496.04 770.043 1286.77 812.43C1109.46 848.646 967.735 973.987 817.774 1106.92C801.339 1121.19 784.867 1136.38 768.432 1150.64C752.482 1164.46 736.533 1178.27 720.582 1192.09C683.353 1224.63 644.708 1257.59 608.372 1291.1C498.881 1392.09 400.712 1501.46 358.86 1636.9C296.157 1838.2 356.593 2097.17 505.988 2266.92C647.788 2428.44 891.313 2531.09 1173.24 2549.01Z" fill="#151519"/>
<path d="M554.477 1736.22C595.285 1603.54 708.836 1505.98 817.617 1411.02C829.207 1401.23 840.35 1390.95 851.939 1381.16C864.014 1370.92 875.641 1360.2 887.715 1349.96C997.019 1253.62 1100.06 1162.17 1229.86 1135.69C1365.78 1108.07 1549.16 1152.32 1622.13 1274.21C1671.5 1356.89 1665.6 1468.13 1658.06 1597.03C1655.1 1647.28 1652.55 1698.95 1652.75 1751.67C1653.14 1799.72 1656.29 1848.83 1659.51 1896.06C1668.36 2034.95 1676.62 2165.42 1617.94 2255.4C1607.02 2271.75 1594.76 2286.65 1579.74 2300.5C1480.42 2392.1 1299.4 2416.51 1150.54 2406.76C944.9 2393.79 767.453 2318.06 663.076 2200.04C550.657 2073.29 507.367 1886.37 554.477 1736.22ZM1150.62 2393.24C1318.55 2404.22 1526.03 2371.56 1606.59 2247.94C1662.31 2161.57 1653.98 2032.97 1645.5 1896.43C1642.77 1848.75 1639.62 1799.64 1639.23 1751.59C1638.58 1698.39 1641.62 1646.27 1644.58 1596.02C1651.56 1469.43 1657.82 1360.54 1610.65 1281.21C1548.18 1176.54 1382.61 1118.54 1233.06 1148.88C1106.09 1174.54 1004.5 1264.65 896.653 1359.65C885.025 1370.37 872.951 1380.61 860.877 1390.85C849.287 1400.64 838.144 1410.92 826.554 1420.71C799.499 1443.88 772.406 1467.97 746.244 1492.1C667.759 1564.49 597.43 1642.81 567.403 1739.54C522.418 1883.25 565.746 2069.24 672.319 2190.62C773.976 2306.66 948.259 2379.94 1150.62 2393.24Z" fill="#151519"/>
</g>
</svg>
